<svg width="332" height="399" viewBox="0 0 332 399" fill="none" xmlns="http://www.w3.org/2000/svg">
<path d="M166 399C257.679 399 332 393.331 332 386.338C332 379.345 257.679 373.676 166 373.676C74.3207 373.676 0 379.345 0 386.338C0 393.331 74.3207 399 166 399Z" fill="#E6E6E6"/>
<path d="M211.779 22.2861H158.436V88.8116H211.779V22.2861Z" fill="#2F2E41"/>
<path d="M114.386 332.603L107.112 359.375L119.236 368.299L122.469 365.866L128.127 338.282L114.386 332.603Z" fill="#FFB8B8"/>
<path d="M205.717 330.169L203.292 362.62H218.648V332.603L205.717 330.169Z" fill="#FFB8B8"/>
<path d="M157.223 124.914V144.385L187.128 149.252L212.991 138.706L208.141 126.536L157.223 124.914Z" fill="#FFB8B8"/>
<path d="M181.47 141.14L155.607 136.272L149.141 189.005L132.976 254.72C132.976 254.72 108.729 310.698 111.962 323.679L113.579 327.735L111.962 335.037L128.127 341.527L134.593 330.981C134.593 330.981 139.442 338.282 147.524 322.868C155.607 307.453 189.553 211.721 189.553 211.721L195.21 227.947C193.747 232.953 193.47 238.23 194.402 243.362C196.018 251.474 197.635 276.624 197.635 276.624C197.635 276.624 188.744 320.434 200.868 323.679L203.292 333.414L220.265 335.037L223.498 325.301C223.498 325.301 239.663 319.622 235.622 291.227C231.58 262.832 229.964 169.535 229.964 169.535L214.041 130.127L181.47 141.14Z" fill="#256D67"/>
<path d="M111.962 357.753C111.962 357.753 107.921 354.508 106.304 355.319C104.688 356.13 87.7151 378.035 87.7151 378.035C87.7151 378.035 69.934 391.827 82.8657 393.45C95.7975 395.072 131.36 377.224 131.36 373.168C131.36 369.111 123.887 358.952 123.887 358.952C123.887 358.952 118.428 363.432 111.962 357.753Z" fill="#2F2E41"/>
<path d="M201.676 355.319C201.676 355.319 216.224 354.412 218.649 356.894C221.073 359.376 220.265 371.545 220.265 371.545C220.265 371.545 221.882 393.45 208.95 393.45C196.018 393.45 199.251 378.846 199.251 378.846L201.676 355.319Z" fill="#2F2E41"/>
<path d="M187.128 53.5206C198.287 53.5206 207.333 44.44 207.333 33.2385C207.333 22.0369 198.287 12.9563 187.128 12.9563C175.968 12.9563 166.922 22.0369 166.922 33.2385C166.922 44.44 175.968 53.5206 187.128 53.5206Z" fill="#FFB8B8"/>
<path d="M173.792 45.8135C173.792 45.8135 185.107 59.6053 162.476 70.1521C139.846 80.6988 178.641 124.508 178.641 124.508C178.641 124.508 223.902 107.471 219.861 74.2085C219.861 74.2085 192.381 69.3408 198.847 46.6248L173.792 45.8135Z" fill="#FFB8B8"/>
<path d="M161.668 69.3408C161.668 69.3408 143.079 66.9069 142.271 82.3213C141.463 97.7358 142.271 135.055 142.271 135.055C142.271 135.055 134.189 167.506 138.23 195.901C138.23 195.901 133.38 229.164 146.312 227.542C159.244 225.919 149.545 193.468 149.545 193.468L155.202 140.734L152.778 101.792L163.285 78.2649L161.668 69.3408Z" fill="#FFB8B8"/>
<path d="M215.168 72.9248C215.168 72.9248 232.793 72.5859 233.601 85.5665C234.409 98.547 227.943 138.3 227.943 138.3L218.245 143.168L209.354 115.584L215.168 72.9248Z" fill="#FFB8B8"/>
<path d="M220.265 139.517L218.649 143.573L223.498 155.743C223.498 155.743 204.101 171.157 205.717 174.402C207.333 177.647 216.224 170.346 216.224 170.346L229.156 176.836C229.156 176.836 239.663 165.478 234.813 154.931C232.127 149.262 229.879 143.394 228.091 137.38C228.091 137.38 221.073 137.083 220.265 139.517Z" fill="#FFB8B8"/>
<path d="M158.031 66.5012L155.607 93.2737C155.607 93.2737 144.291 104.632 157.223 120.046L155.607 132.215C155.607 132.215 185.511 130.593 191.169 132.215C196.826 133.838 214.299 130.909 214.299 130.909L214.607 121.669C214.607 121.669 222.69 110.311 220.265 93.2737C217.84 76.2367 220.265 70.5577 220.265 70.5577L214.607 69.7464C214.607 69.7464 210.97 94.4906 185.915 96.9245C185.915 96.9245 154.798 99.764 163.689 66.5012L158.031 66.5012Z" fill="#E6E6E6"/>
<path d="M189.148 0.381392C189.148 0.381392 168.134 -0.92626 163.285 12.1907C158.435 25.3076 149.949 32.1938 149.949 32.1938C149.949 32.1938 136.581 41.5214 143.265 58.1725C143.265 58.1725 122.469 72.2003 136.209 84.6613C136.209 84.6613 135.401 97.1223 143.483 105.648C143.483 105.648 149.949 108.927 147.524 110.895C145.1 112.863 163.689 111.551 162.073 93.8431C160.456 76.1353 171.367 63.6618 171.367 63.6618C171.367 63.6618 160.86 40.703 165.71 32.8329C168.654 28.0546 169.918 24.4913 172.362 22.429C173.724 21.3076 174.986 20.0709 176.136 18.7328C177.22 17.3544 178.695 16.3364 180.369 15.8125C182.042 15.2887 183.835 15.2835 185.511 15.7977C192.785 17.7653 194.402 23.6679 194.402 23.6679C194.402 23.6679 199.655 37.7685 208.546 44.3269C217.436 50.8853 201.676 62.3626 201.676 62.3626C201.676 62.3626 204.415 75.8754 211.532 83.8754C218.649 91.8755 209.481 98.8489 208.95 99.7456C207.738 101.792 202.896 114.716 222.896 114.773C222.896 114.773 227.539 104.992 234.005 99.0898C240.471 93.1873 235.622 76.1353 235.622 76.1353C235.622 76.1353 245.32 70.2327 234.813 55.8042C234.813 55.8042 238.046 42.6873 229.156 34.1614C229.156 34.1614 216.628 -4.2095 189.148 0.381392Z" fill="#2F2E41"/>
<path d="M165.305 36.078C166.421 36.078 167.326 34.6251 167.326 32.8329C167.326 31.0406 166.421 29.5877 165.305 29.5877C164.189 29.5877 163.285 31.0406 163.285 32.8329C163.285 34.6251 164.189 36.078 165.305 36.078Z" fill="#FFB8B8"/>
<path d="M68.796 367.473H19.196V373.224H68.796V367.473Z" fill="#2F2E41"/>
<path d="M68.796 387.602C71.178 387.602 73.109 379.878 73.109 370.349C73.109 360.82 71.178 353.095 68.796 353.095C66.4139 353.095 64.4829 360.82 64.4829 370.349C64.4829 379.878 66.4139 387.602 68.796 387.602Z" fill="#2F2E41"/>
<path d="M19.1961 387.602C21.5781 387.602 23.5092 379.878 23.5092 370.349C23.5092 360.82 21.5781 353.095 19.1961 353.095C16.8141 353.095 14.8831 360.82 14.8831 370.349C14.8831 379.878 16.8141 387.602 19.1961 387.602Z" fill="#2F2E41"/>
<path d="M57.0216 367.473H7.42163V373.224H57.0216V367.473Z" fill="#2F2E41"/>
<path d="M57.0215 387.602C59.4036 387.602 61.3346 379.878 61.3346 370.349C61.3346 360.82 59.4036 353.095 57.0215 353.095C54.6395 353.095 52.7085 360.82 52.7085 370.349C52.7085 379.878 54.6395 387.602 57.0215 387.602Z" fill="#2F2E41"/>
<path d="M7.42169 387.602C9.80372 387.602 11.7347 379.878 11.7347 370.349C11.7347 360.82 9.80372 353.095 7.42169 353.095C5.03966 353.095 3.10864 360.82 3.10864 370.349C3.10864 379.878 5.03966 387.602 7.42169 387.602Z" fill="#2F2E41"/>
</svg>
